<?xml version="1.0" standalone="yes"?>
<svg xmlns="http://www.w3.org/2000/svg" width="128" height="128">
<path style="fill:#010101; stroke:none;" d="M0 0L0 128L128 128L128 0L0 0z"/>
<path style="fill:#4219d7; stroke:none;" d="M100 16L100 17L107 20C107.953 15.7581 103.15 16.0373 100 16M79 19L79 20L99 18L79 19z"/>
<path style="fill:#8264ef; stroke:none;" d="M99 17L99 18L103 18L99 17z"/>
<path style="fill:#b2a0f6; stroke:none;" d="M103 17L103 18L107 19L103 17z"/>
<path style="fill:#8264ef; stroke:none;" d="M92 18L92 19L96 19L92 18z"/>
<path style="fill:#b2a0f6; stroke:none;" d="M96 18L96 19L99 19L96 18z"/>
<path style="fill:#fdfcff; stroke:none;" d="M35 50L59 49C54.0673 57.0413 40.8201 51.3867 33.1852 54.6034C26.9787 57.2183 20.8078 71.854 19 78L46 79L40 95L78 98.9753L91.2585 98.9722L94 90L98 66L65 66C71.8005 58.4517 89.4621 62 99 62L102 39L75 41C80.2999 31.3811 95.0364 39.7747 102.258 33.9722C105.523 31.3496 105.687 21.9305 106 18C96.5112 18.0786 80.7589 18.5059 72.1327 22.564C68.9228 24.0741 68.1033 27.9193 64.892 29.4861C59.1748 32.2755 51.9583 30.0888 46.1852 32.5995C40.8107 34.9369 37.1366 44.895 35 50z"/>
<path style="fill:#8264ef; stroke:none;" d="M85 19L85 20L88 20L85 19z"/>
<path style="fill:#b2a0f6; stroke:none;" d="M88 19L88 20L92 20L88 19z"/>
<path style="fill:#8264ef; stroke:none;" d="M106.333 19.6667L106.667 20.3333L106.333 19.6667z"/>
<path style="fill:#4219d7; stroke:none;" d="M63 28L63 29L78 21C70.3391 17.8166 68.5577 25.0247 63 28z"/>
<path style="fill:#8264ef; stroke:none;" d="M78 20L78 21L81 21L78 20z"/>
<path style="fill:#b2a0f6; stroke:none;" d="M81 20L81 21L85 21L81 20z"/>
<path style="fill:#8264ef; stroke:none;" d="M71 21L71 22L74 22L71 21z"/>
<path style="fill:#b2a0f6; stroke:none;" d="M74 21L74 22L77 22L74 21z"/>
<path style="fill:#4219d7; stroke:none;" d="M106 21L104 35C97.0964 35.8725 80.1419 34.1377 76 40L103 38L99 63C91.5965 63 70.2475 59.4482 66 66L99 66L93 101C79.9831 100.441 66.9827 98.137 54 97C49.2558 96.5845 41.7493 97.2407 39 93L38 93L41 97C40.3186 100.589 41.1625 102.762 45.044 103.66C56.4486 106.298 68.4806 106.77 80 109C84.0541 109.785 90.7554 112.176 94.7215 110.393C100.21 107.925 99.5655 94.0784 100.285 89C101.188 82.636 103.918 76.2096 99 71C105.3 67.1477 108.225 48.0316 104 42C109.157 38.8478 113.185 23.3848 106 21z"/>
<path style="fill:#8264ef; stroke:none;" d="M69 22L70 23L69 22z"/>
<path style="fill:#b2a0f6; stroke:none;" d="M70 22L71 23L70 22M105.333 22.6667L105.667 23.3333L105.333 22.6667M69 23L70 24L69 23z"/>
<path style="fill:#8264ef; stroke:none;" d="M68.3333 24.6667L68.6667 25.3333L68.3333 24.6667M105 24L106 25L105 24z"/>
<path style="fill:#b2a0f6; stroke:none;" d="M68 26L69 27L68 26z"/>
<path style="fill:#8264ef; stroke:none;" d="M67 27L68 28L67 27z"/>
<path style="fill:#b2a0f6; stroke:none;" d="M104.333 27.6667L104.667 28.3333L104.333 27.6667M67 28L68 29L67 28z"/>
<path style="fill:#4219d7; stroke:none;" d="M47 30L47 31L62 30L47 30z"/>
<path style="fill:#8264ef; stroke:none;" d="M62 29L62 30L66 30L62 29z"/>
<path style="fill:#b2a0f6; stroke:none;" d="M66 29L67 30L66 29z"/>
<path style="fill:#8264ef; stroke:none;" d="M104.333 29.6667L104.667 30.3333L104.333 29.6667M54 30L54 31L57 31L54 30z"/>
<path style="fill:#b2a0f6; stroke:none;" d="M57 30L57 31L62 31L57 30z"/>
<path style="fill:#4219d7; stroke:none;" d="M43 31L34 52C29.0139 53.5554 26.9676 58.4339 25 63L26 63C28.0474 59.6557 29.9842 54.4588 34.1042 53.3179C41.2277 51.3453 53.2961 56.3392 58 49L34 51L45 31L43 31z"/>
<path style="fill:#8264ef; stroke:none;" d="M45 31L45 32L49 32L45 31z"/>
<path style="fill:#b2a0f6; stroke:none;" d="M49 31L49 32L53 32L49 31M44 32L45 33L44 32z"/>
<path style="fill:#8264ef; stroke:none;" d="M43 33L44 34L43 33z"/>
<path style="fill:#b2a0f6; stroke:none;" d="M103 33L104 34L103 33M43 34L44 35L43 34z"/>
<path style="fill:#8264ef; stroke:none;" d="M103 34L104 35L103 34M42 35L43 36L42 35z"/>
<path style="fill:#b2a0f6; stroke:none;" d="M93 35L93 36L97 36L93 35z"/>
<path style="fill:#8264ef; stroke:none;" d="M97 35L97 36L101 36L97 35M41 36L42 37L41 36z"/>
<path style="fill:#b2a0f6; stroke:none;" d="M82 36L82 37L86 37L82 36z"/>
<path style="fill:#8264ef; stroke:none;" d="M86 36L86 37L89 37L86 36z"/>
<path style="fill:#b2a0f6; stroke:none;" d="M41 37L42 38L41 37z"/>
<path style="fill:#8264ef; stroke:none;" d="M76.6667 37.3333L77.3333 37.6667L76.6667 37.3333M40 38L41 39L40 38z"/>
<path style="fill:#b2a0f6; stroke:none;" d="M75 38L76 39L75 38z"/>
<path style="fill:#8264ef; stroke:none;" d="M96 38L96 39L99 39L96 38z"/>
<path style="fill:#b2a0f6; stroke:none;" d="M99 38L99 39L102 42L103 42L103 38L99 38M40 39L41 40L40 39z"/>
<path style="fill:#8264ef; stroke:none;" d="M75 39L76 40L75 39M83 39L83 40L87 40L83 39z"/>
<path style="fill:#b2a0f6; stroke:none;" d="M87 39L87 40L92 40L87 39z"/>
<path style="fill:#8264ef; stroke:none;" d="M39 40L40 41L39 40z"/>
<path style="fill:#b2a0f6; stroke:none;" d="M75 40L75 41L79 41L75 40M39 41L40 42L39 41z"/>
<path style="fill:#8264ef; stroke:none;" d="M38 42L39 43L38 42M102.333 42.6667L102.667 43.3333L102.333 42.6667M37 43L38 44L37 43z"/>
<path style="fill:#b2a0f6; stroke:none;" d="M37 44L38 45L37 44z"/>
<path style="fill:#8264ef; stroke:none;" d="M36 45L37 46L36 45z"/>
<path style="fill:#b2a0f6; stroke:none;" d="M101.333 45.6667L101.667 46.3333L101.333 45.6667M36 46L37 47L36 46z"/>
<path style="fill:#8264ef; stroke:none;" d="M35 47L36 48L35 47M101.333 47.6667L101.667 48.3333L101.333 47.6667z"/>
<path style="fill:#b2a0f6; stroke:none;" d="M35 48L36 49L35 48M34 49L36 51L34 49M43 49L43 50L50 50L43 49z"/>
<path style="fill:#8264ef; stroke:none;" d="M50 49L50 50L56 50L50 49z"/>
<path style="fill:#b2a0f6; stroke:none;" d="M58.3333 49.6667L58.6667 50.3333L58.3333 49.6667z"/>
<path style="fill:#8264ef; stroke:none;" d="M34 50L35 51L34 50M36 50L36 51L41 51L36 50z"/>
<path style="fill:#010101; stroke:none;" d="M38.6667 51.3333L39.3333 51.6667L38.6667 51.3333z"/>
<path style="fill:#8264ef; stroke:none;" d="M57 51L52 52L52 53L58 52L57 51z"/>
<path style="fill:#b2a0f6; stroke:none;" d="M100.333 51.6667L100.667 52.3333L100.333 51.6667M57 52L58 53L57 52z"/>
<path style="fill:#8264ef; stroke:none;" d="M31.6667 53.3333L32.3333 53.6667L31.6667 53.3333z"/>
<path style="fill:#b2a0f6; stroke:none;" d="M33 53L33 54L45 54L33 53z"/>
<path style="fill:#8264ef; stroke:none;" d="M100.333 53.6667L100.667 54.3333L100.333 53.6667z"/>
<path style="fill:#b2a0f6; stroke:none;" d="M31 54L32 55L31 54z"/>
<path style="fill:#8264ef; stroke:none;" d="M30 55L31 56L30 55z"/>
<path style="fill:#b2a0f6; stroke:none;" d="M30 56L31 57L30 56M99 56L99 59L100 59L99 56M29 57L30 58L29 57z"/>
<path style="fill:#8264ef; stroke:none;" d="M28 58L29 59L28 58z"/>
<path style="fill:#b2a0f6; stroke:none;" d="M28 59L29 60L28 59z"/>
<path style="fill:#8264ef; stroke:none;" d="M99 59L100 60L99 59M27 60L28 61L27 60z"/>
<path style="fill:#b2a0f6; stroke:none;" d="M27 61L28 62L27 61z"/>
<path style="fill:#8264ef; stroke:none;" d="M26 62L25 64L26 62z"/>
<path style="fill:#b2a0f6; stroke:none;" d="M67 62L67 63L98 63L67 62z"/>
<path style="fill:#8264ef; stroke:none;" d="M98 62L99 63L98 62z"/>
<path style="fill:#b2a0f6; stroke:none;" d="M26 63L27 64L26 63z"/>
<path style="fill:#8264ef; stroke:none;" d="M66 63L67 64L66 63z"/>
<path style="fill:#4219d7; stroke:none;" d="M24 64C21.8111 67.5765 15.2289 75.3498 19 79L24 64z"/>
<path style="fill:#b2a0f6; stroke:none;" d="M25 64L26 65L25 64z"/>
<path style="fill:#8264ef; stroke:none;" d="M24 65L25 66L24 65z"/>
<path style="fill:#b2a0f6; stroke:none;" d="M65 65L66 66L65 65M24 66L25 67L24 66z"/>
<path style="fill:#8264ef; stroke:none;" d="M98.3333 66.6667L98.6667 67.3333L98.3333 66.6667M23 67L24 68L23 67z"/>
<path style="fill:#b2a0f6; stroke:none;" d="M23 68L24 69L23 68z"/>
<path style="fill:#8264ef; stroke:none;" d="M22 69L21 71L22 69z"/>
<path style="fill:#b2a0f6; stroke:none;" d="M22 70L23 71L22 70M97.3333 70.6667L97.6667 71.3333L97.3333 70.6667M21 71L22 72L21 71z"/>
<path style="fill:#8264ef; stroke:none;" d="M20 72L21 73L20 72M97.3333 72.6667L97.6667 73.3333L97.3333 72.6667z"/>
<path style="fill:#b2a0f6; stroke:none;" d="M20 73L21 74L20 73z"/>
<path style="fill:#8264ef; stroke:none;" d="M19 74L20 75L19 74z"/>
<path style="fill:#b2a0f6; stroke:none;" d="M19 75L20 76L19 75M96.3333 75.6667L96.6667 76.3333L96.3333 75.6667z"/>
<path style="fill:#8264ef; stroke:none;" d="M18 76L19 77L18 76z"/>
<path style="fill:#b2a0f6; stroke:none;" d="M18 77L19 78L18 77z"/>
<path style="fill:#8264ef; stroke:none;" d="M96.3333 77.6667L96.6667 78.3333L96.3333 77.6667M19 78L19 79L33 79L19 78z"/>
<path style="fill:#b2a0f6; stroke:none;" d="M33 78L33 79L41 79L33 78z"/>
<path style="fill:#4219d7; stroke:none;" d="M22 79L22 80L24 81L21 89L40 92L45 79L22 79z"/>
<path style="fill:#b2a0f6; stroke:none;" d="M45.3333 79.6667L45.6667 80.3333L45.3333 79.6667z"/>
<path style="fill:#8264ef; stroke:none;" d="M44 81L45 82L44 81z"/>
<path style="fill:#b2a0f6; stroke:none;" d="M95.3333 81.6667L95.6667 82.3333L95.3333 81.6667M44 82L45 83L44 82z"/>
<path style="fill:#8264ef; stroke:none;" d="M95.3333 83.6667L95.6667 84.3333L95.3333 83.6667z"/>
<path style="fill:#b2a0f6; stroke:none;" d="M43 84L44 85L43 84z"/>
<path style="fill:#8264ef; stroke:none;" d="M42 86L43 87L42 86z"/>
<path style="fill:#b2a0f6; stroke:none;" d="M42 87L43 88L42 87M94.3333 87.6667L94.6667 88.3333L94.3333 87.6667z"/>
<path style="fill:#8264ef; stroke:none;" d="M41 88L42 89L41 88z"/>
<path style="fill:#b2a0f6; stroke:none;" d="M41 89L42 90L41 89z"/>
<path style="fill:#8264ef; stroke:none;" d="M94.3333 89.6667L94.6667 90.3333L94.3333 89.6667M40 90L41 91L40 90z"/>
<path style="fill:#b2a0f6; stroke:none;" d="M40 91L41 92L40 91z"/>
<path style="fill:#8264ef; stroke:none;" d="M39 92L40 93L39 92z"/>
<path style="fill:#b2a0f6; stroke:none;" d="M93 92L93 95L94 95L93 92M39.3333 93.6667L39.6667 94.3333L39.3333 93.6667z"/>
<path style="fill:#8264ef; stroke:none;" d="M39.6667 95.3333L40.3333 95.6667L39.6667 95.3333z"/>
<path style="fill:#b2a0f6; stroke:none;" d="M41 95L41 96L46 96L41 95z"/>
<path style="fill:#8264ef; stroke:none;" d="M93 95L94 96L93 95M49 96L49 97L52 97L49 96z"/>
<path style="fill:#b2a0f6; stroke:none;" d="M52 96L52 97L55 97L52 96z"/>
<path style="fill:#8264ef; stroke:none;" d="M58 97L58 98L61 98L58 97z"/>
<path style="fill:#b2a0f6; stroke:none;" d="M61 97L61 98L65 98L61 97z"/>
<path style="fill:#8264ef; stroke:none;" d="M68 98L68 99L71 99L68 98z"/>
<path style="fill:#b2a0f6; stroke:none;" d="M71 98L71 99L74 99L71 98M92 98L90 100L90 101L92 98z"/>
<path style="fill:#8264ef; stroke:none;" d="M77 99L77 100L80 100L77 99z"/>
<path style="fill:#b2a0f6; stroke:none;" d="M80 99L80 100L84 100L80 99z"/>
<path style="fill:#8264ef; stroke:none;" d="M87 100L87 101L90 101L87 100M92 100L93 101L92 100z"/>
</svg>
