<?xml version="1.0" standalone="yes"?>
<svg xmlns="http://www.w3.org/2000/svg" width="128" height="128">
<path style="fill:#010101; stroke:none;" d="M0 0L0 128L128 128L128 0L0 0z"/>
<path style="fill:#4119d4; stroke:none;" d="M79 19L79 20C86.8114 19.5704 100.585 14.7256 107 20C107.953 12.7192 83.7394 18.7518 79 19z"/>
<path style="fill:#8e73f0; stroke:none;" d="M101 17L101 18L106 21L107 21L107 17L101 17z"/>
<path style="fill:#ae9bf5; stroke:none;" d="M94 18L94 19L99 19L94 18z"/>
<path style="fill:#fefeff; stroke:none;" d="M35 50L58 49C51.3176 56.3223 40.5993 51.0807 32.5871 55.1747C25.9117 58.5855 20.9916 71.4504 18 78L45 79L40 95L93 100L98 66L66 66C72.7595 58.5949 89.71 62 99 62L102 39L75 41C81.2991 34.3217 95.3356 35.1219 104 35L106 18C96.1584 18.3668 82.4864 18.4788 73.2906 22.0817C69.4006 23.6058 67.55 27.6936 63.6968 29.2811C58.2592 31.5212 51.8489 30.475 46.4519 32.7612C40.4109 35.3203 37.1313 44.2982 35 50z"/>
<path style="fill:#8e73f0; stroke:none;" d="M85 19L85 20L92 20L85 19z"/>
<path style="fill:#4119d4; stroke:none;" d="M47 30L47 31L64.6108 28.751L78 21C70.5716 19.4645 68.7004 24.8978 62.7416 27.6557C58.107 29.8007 52.0216 29.7238 47 30z"/>
<path style="fill:#8e73f0; stroke:none;" d="M78 20L78 21L83 21L78 20z"/>
<path style="fill:#4119d4; stroke:none;" d="M106 21L104 35L76 37L76 40L103 38L99 63L66 63L66 66L98 66C97.3363 73.7948 97.1116 93.3674 90.9148 98.7349C87.3297 101.84 80.2146 99.8013 76 99.3297C63.712 97.9547 51.3824 96.0983 39 96L45 79L22 79L22 80L24 81L21 89L39 91L41 97C41.4839 106.341 56.8976 105.406 64 106.428C72.0903 107.593 85.7042 112.816 93.5481 110.091C97.6064 108.681 98.2244 103.653 98.8253 99.9969C100.285 91.1162 104.272 78.9715 99 71C105.378 65.1689 107.615 49.7473 104 42C109.091 38.5133 113.113 23.8203 106 21z"/>
<path style="fill:#8e73f0; stroke:none;" d="M105.333 22.6667L105.667 23.3333L105.333 22.6667z"/>
<path style="fill:#ae9bf5; stroke:none;" d="M68.3333 25.6667L68.6667 26.3333L68.3333 25.6667M65.6667 29.3333L66.3333 29.6667L65.6667 29.3333M54 30L54 31L59 31L54 30z"/>
<path style="fill:#4119d4; stroke:none;" d="M43 31L34 52L29 57L30 57C37.2303 51.0421 49.0076 52.6943 58 52L58 49L34 51L45 31L43 31z"/>
<path style="fill:#8e73f0; stroke:none;" d="M45 31L45 32L53 32L45 31M94 35L94 36L99 36L94 35z"/>
<path style="fill:#ae9bf5; stroke:none;" d="M97 38L97 39L102 42L103 42L103 38L97 38M75 39L78 41L78 40L75 39z"/>
<path style="fill:#8e73f0; stroke:none;" d="M82 39L82 40L88 40L82 39z"/>
<path style="fill:#ae9bf5; stroke:none;" d="M101.333 45.6667L101.667 46.3333L101.333 45.6667z"/>
<path style="fill:#8e73f0; stroke:none;" d="M34 49L41 51L41 50L34 49z"/>
<path style="fill:#ae9bf5; stroke:none;" d="M46 49L46 50L53 50L46 49z"/>
<path style="fill:#010101; stroke:none;" d="M38.6667 51.3333L39.3333 51.6667L38.6667 51.3333z"/>
<path style="fill:#8e73f0; stroke:none;" d="M52 52L52 53L57 53L52 52z"/>
<path style="fill:#ae9bf5; stroke:none;" d="M32 53L32 54L45 54L32 53M99.3333 56.6667L99.6667 57.3333L99.3333 56.6667z"/>
<path style="fill:#4119d4; stroke:none;" d="M28 57L18 76L19 76L28 57z"/>
<path style="fill:#ae9bf5; stroke:none;" d="M27.3333 60.6667L27.6667 61.3333L27.3333 60.6667M67 62L67 63L99 63L67 62z"/>
<path style="fill:#8e73f0; stroke:none;" d="M17 76C18.1634 81.4292 32.2133 79 37 79L37 78L17 76z"/>
<path style="fill:#ae9bf5; stroke:none;" d="M95.3333 80.6667L95.6667 81.3333L95.3333 80.6667z"/>
<path style="fill:#8e73f0; stroke:none;" d="M95 82L95 85L96 85L95 82z"/>
<path style="fill:#ae9bf5; stroke:none;" d="M40.3333 90.6667L40.6667 91.3333L40.3333 90.6667z"/>
<path style="fill:#8e73f0; stroke:none;" d="M39 93C39.6544 96.0539 41.0066 95.9358 44 96L44 95L39 93M93.3333 93.6667L93.6667 94.3333L93.3333 93.6667z"/>
<path style="fill:#ae9bf5; stroke:none;" d="M49 96L49 97L54 97L49 96M60 97L60 98L64 98L60 97M68 98L68 99L74 99L68 98z"/>
<path style="fill:#8e73f0; stroke:none;" d="M77 99L77 100L81 100L77 99M86 100L86 101L92 101L86 100z"/>
</svg>
